<?xml version="1.0" encoding="utf-8"?>
<!-- Generator: Adobe Illustrator 24.1.0, SVG Export Plug-In . SVG Version: 6.00 Build 0)  -->
<svg version="1.1" id="Layer_1" xmlns="http://www.w3.org/2000/svg" xmlns:xlink="http://www.w3.org/1999/xlink" x="0px" y="0px"
	 viewBox="0 0 1218 225" style="enable-background:new 0 0 1218 225;" xml:space="preserve">
<style type="text/css">
	.st0{fill:#FFFFFF;}
</style>
<g>
	<path class="st0" d="M686.9,80v12.7h-28.3v12.7h28.3v12.7h-28.3v12.7h28.3v12.7H646V80H686.9z"/>
	<path class="st0" d="M749,80c17.9,0,31.1,13.4,31.1,31.7s-13.1,31.7-31.1,31.7h-23V80H749z M749,92.7h-10.3v38H749
		c10.9,0,18.4-8.1,18.4-19S759.9,92.7,749,92.7z"/>
	<path class="st0" d="M872.8,80v34.1c0,17.4-12.6,29.4-29.4,29.4s-29.5-12-29.5-29.4V80h12.7v34.1c0,10.3,7.2,16.7,16.8,16.7
		c9.6,0,16.8-6.3,16.8-16.7V80H872.8z"/>
	<path class="st0" d="M940.2,80c8.8,0,16.8,3,22.8,8.6l-6.1,11.6c-4.7-4.8-10-7.5-16.8-7.5c-11.1,0-19,7.8-19,19
		c0,11.2,8,19,18.8,19c6.9,0,12.9-2.6,17.8-8.1l6.3,11.8c-6.3,5.8-14.4,9-23.9,9c-18,0-31.7-13.7-31.7-31.8
		C908.5,93.6,922.1,80,940.2,80z"/>
	<path class="st0" d="M1044.9,133.5h-33.3l-4.6,10h-14l29.4-63.4h11.8l29.4,63.4h-14L1044.9,133.5z M1017.4,120.8h21.6l-10.8-23.4
		L1017.4,120.8z"/>
	<path class="st0" d="M1117.9,92.7v50.7h-12.7V92.7h-22.9V80h58.5v12.7H1117.9z"/>
	<path class="st0" d="M1216.3,80v12.7H1188v12.7h28.3v12.7H1188v12.7h28.3v12.7h-40.9V80H1216.3z"/>
</g>
<g>
	<path class="st0" d="M351.8,152.7l-1.9,5.8c-10.1,22.7-35.1,36.8-65.3,36.8c-43.3,0-74.7-28.8-79.4-72.1h167.2c4.6,0,7.7-3,8-7.5
		l0-3c0-27.7-9.1-53.6-25.6-72.9c-18-21-42.7-32.2-71.4-32.2C225.2,7.5,183,51.4,183,111.8c0,29.3,10,55.8,28.3,74.7
		c18.4,19.1,44.4,29.6,73.2,29.6c40.9,0,74.5-20.5,87.6-53.5c0.4-1.1,2.1-5.5,3.5-9.9H351.8z M228.2,50.1
		c14.3-14.2,33.4-21.8,55.2-21.8c40.7,0,70.5,29.5,75.1,73.9H205C206.9,81.4,214.8,63.4,228.2,50.1z"/>
	<path class="st0" d="M440.3,212.1V99.5c0-35.4,19.1-71.1,61.6-71.1c29.6,0,48.1,19.6,48.1,51.3v132.5h21.6V79.6
		c0-22.1-6.9-40.6-19.8-53.5C540.1,14.6,523.8,8,505.6,7.5l-2.2,0c-26.8,0-49.1,11.2-63.2,31.3v-5.7c0-11.9-9.7-21.6-21.6-21.6l0,0
		v200.6H440.3z"/>
	<g>
		<path class="st0" d="M162,212l-146.9,0c-2.6,0-5.3-0.8-7.3-2.5c-4-3.4-5-8.9-2.8-13.3L70.5,63.9l0,0c10.9,5.4,15.3,18.5,9.9,29.4
			l-48,96.8H140C152.1,190.1,162,199.9,162,212L162,212z"/>
	</g>
	<g>
		<path class="st0" d="M99.4,151L99.4,151c-10.9-5.3-15.5-18.4-10.2-29.3L131.6,34H33.3c-12.1,0-21.9-9.8-21.9-21.9v0l137.4,0
			c2.6,0,5.2,0.8,7.3,2.5c4,3.4,5,8.8,2.9,13.2L99.4,151z"/>
	</g>
</g>
</svg>
